<?xml version="1.0" standalone="no"?><!DOCTYPE svg PUBLIC "-//W3C//DTD SVG 1.1//EN" "http://www.w3.org/Graphics/SVG/1.1/DTD/svg11.dtd"><svg t="1635993040118" class="icon" viewBox="0 0 1024 1024" version="1.1" xmlns="http://www.w3.org/2000/svg" p-id="17579" xmlns:xlink="http://www.w3.org/1999/xlink" width="200" height="200"><defs><style type="text/css"></style></defs><path d="M140 267.875h743.999c19.276 0 34.875-15.599 34.875-34.875 0-19.254-15.599-34.875-34.875-34.875H140c-19.254 0-34.875 15.621-34.875 34.875 0 19.277 15.621 34.875 34.875 34.875zM883.999 477.125H140c-19.254 0-34.875 15.621-34.875 34.875 0 19.277 15.621 34.875 34.875 34.875h743.999c19.276 0 34.875-15.598 34.875-34.875 0-19.253-15.599-34.875-34.875-34.875zM883.999 756.125H140c-19.254 0-34.875 15.621-34.875 34.875 0 19.277 15.621 34.875 34.875 34.875h743.999c19.276 0 34.875-15.598 34.875-34.875 0-19.254-15.599-34.875-34.875-34.875z" p-id="17580"></path></svg>