<?xml version="1.0" standalone="no"?><!DOCTYPE svg PUBLIC "-//W3C//DTD SVG 1.1//EN" "http://www.w3.org/Graphics/SVG/1.1/DTD/svg11.dtd"><svg t="1635435130669" class="icon" viewBox="0 0 1024 1024" version="1.1" xmlns="http://www.w3.org/2000/svg" p-id="2836" xmlns:xlink="http://www.w3.org/1999/xlink" width="200" height="200"><defs><style type="text/css"></style></defs><path d="M878.592 761.856c20.48-4.096 40.96 8.192 45.056 26.624 4.096 20.48-8.192 40.96-26.624 45.056l-122.88 26.624c-10.24 2.048-18.432 0-24.576-4.096-2.048 0-2.048-2.048-4.096-4.096l0 0c-2.048-2.048-4.096-6.144-4.096-8.192l-57.344-100.352-555.008 0c-6.144 0-10.24-2.048-14.336-6.144-4.096-4.096-6.144-8.192-8.192-14.336l-2.048-40.96c0-12.288 8.192-20.48 18.432-22.528l561.152-36.864c14.336-2.048 24.576 6.144 28.672 12.288l86.016 145.408L878.592 761.856 878.592 761.856z" p-id="2837"></path><path d="M858.112 733.184c-51.2 0-92.16-40.96-92.16-92.16s40.96-92.16 92.16-92.16 92.16 40.96 92.16 92.16S909.312 733.184 858.112 733.184zM858.112 567.296c-40.96 0-71.68 32.768-71.68 71.68s32.768 71.68 71.68 71.68c40.96 0 71.68-32.768 71.68-71.68S899.072 567.296 858.112 567.296z" p-id="2838"></path><path d="M765.952 872.448c-10.24 0-18.432-4.096-22.528-8.192-2.048 0-4.096-4.096-6.144-6.144-2.048-2.048-4.096-6.144-6.144-10.24l-55.296-94.208-548.864 0c-8.192 0-16.384-4.096-22.528-10.24-6.144-4.096-10.24-12.288-10.24-20.48l-2.048-40.96c0-8.192 2.048-16.384 8.192-22.528 6.144-6.144 12.288-10.24 20.48-10.24l561.152-36.864c18.432-4.096 32.768 6.144 38.912 16.384l81.92 139.264 73.728-18.432c12.288-2.048 24.576 0 34.816 6.144s18.432 16.384 20.48 28.672c6.144 24.576-10.24 51.2-34.816 57.344l-122.88 26.624C772.096 872.448 765.952 872.448 765.952 872.448zM688.128 632.832c-2.048 0-2.048 0-4.096 0l-563.2 36.864c-2.048 0-6.144 2.048-8.192 4.096-2.048 2.048-2.048 4.096-2.048 8.192l2.048 40.96c0 2.048 2.048 6.144 4.096 8.192 2.048 2.048 6.144 4.096 8.192 4.096l561.152 0 61.44 104.448c2.048 4.096 2.048 6.144 4.096 8.192l2.048 2.048c6.144 4.096 10.24 6.144 16.384 4.096l122.88-26.624c14.336-4.096 22.528-18.432 20.48-32.768-2.048-6.144-6.144-12.288-12.288-16.384-6.144-4.096-14.336-4.096-20.48-4.096l-90.112 20.48-90.112-153.6C700.416 641.024 698.368 632.832 688.128 632.832z" p-id="2839"></path><path d="M339.968 606.208c-2.048 0-6.144-2.048-8.192-4.096-2.048-2.048-2.048-6.144-2.048-8.192l40.96-200.704c16.384-63.488 67.584-63.488 83.968-61.44 30.72-2.048 65.536 16.384 77.824 36.864l86.016 120.832 59.392 10.24c12.288 2.048 24.576 8.192 30.72 18.432 8.192 10.24 10.24 22.528 8.192 36.864-4.096 26.624-28.672 45.056-55.296 38.912l0 0-92.16-16.384c-10.24-2.048-20.48-8.192-28.672-16.384l-2.048-2.048c-2.048-4.096-4.096-6.144-6.144-10.24l-22.528-40.96-16.384 81.92c0 4.096-4.096 8.192-10.24 8.192L339.968 606.208 339.968 606.208zM448.512 352.256c-20.48 0-47.104 8.192-57.344 45.056l-38.912 186.368 122.88-6.144 20.48-100.352c0-4.096 4.096-8.192 8.192-8.192s8.192 2.048 10.24 4.096l36.864 65.536c2.048 4.096 2.048 4.096 4.096 6.144l2.048 2.048c4.096 4.096 10.24 8.192 16.384 8.192l94.208 16.384c14.336 2.048 28.672-8.192 30.72-22.528 2.048-8.192 0-14.336-4.096-20.48s-10.24-10.24-18.432-10.24l-63.488-12.288c-2.048 0-4.096-2.048-6.144-4.096l-88.064-124.928c-10.24-14.336-36.864-28.672-61.44-26.624C454.656 352.256 452.608 352.256 448.512 352.256z" p-id="2840"></path><path d="M520.192 335.872c-51.2 0-92.16-40.96-92.16-92.16s40.96-92.16 92.16-92.16 92.16 40.96 92.16 92.16S571.392 335.872 520.192 335.872zM520.192 169.984c-40.96 0-71.68 32.768-71.68 71.68s32.768 71.68 71.68 71.68c40.96 0 71.68-32.768 71.68-71.68S557.056 169.984 520.192 169.984z" p-id="2841"></path><path d="M669.696 819.2 81.92 819.2c-6.144 0-10.24-4.096-10.24-10.24s4.096-10.24 10.24-10.24l585.728 0c6.144 0 10.24 4.096 10.24 10.24S673.792 819.2 669.696 819.2z" p-id="2842"></path></svg>