<?xml version="1.0" standalone="no"?><!DOCTYPE svg PUBLIC "-//W3C//DTD SVG 1.1//EN" "http://www.w3.org/Graphics/SVG/1.1/DTD/svg11.dtd"><svg t="1637117234316" class="icon" viewBox="0 0 1024 1024" version="1.1" xmlns="http://www.w3.org/2000/svg" p-id="605" xmlns:xlink="http://www.w3.org/1999/xlink" width="200" height="200"><defs><style type="text/css"></style></defs><path d="M349.76584708 1043.67330169L251.55636183 802.6135275 10.49658764 704.40404225 81.9217321 632.97889778l223.20401841 8.92787789 99.99491927-124.99382675L-3.78971433 368.70423662l101.78035399-101.78035399 487.47797245 30.35591592L749.74693979 133.00147088l108.92279716-1.78543402c33.92749177-1.78543402 64.28270059 28.5697748 62.49726657 62.49726658l-1.7854333 108.92279787L755.10253544 466.91513609l32.14134994 485.69112422-101.78035329 101.78035329L535.47150568 647.26378483l-123.20909913 101.7810611L421.19028444 972.24886433 349.76584708 1043.67330169zM289.05472163 765.1151677l78.56758834 189.27723373 1.78614113-1.78614112L358.69372568 727.61680719l201.77739388-162.49218585 146.42115767 399.981092 28.5697748-28.5697748-32.14134994-485.69112422L869.38517089 284.78034552l0-89.28160736c1.78543402-5.35630205 0-7.14173606-1.78614183-8.92787789s-3.57086803-3.57086803-7.14173677-3.57228295l-89.28160736 0-167.84919571 167.8491957L117.63465789 318.70713019l-28.57048191 28.57048191 399.981092 146.42115767-158.9206107 201.77668677-224.99015953-10.71401902-1.78543472 1.78543473L289.05472163 765.1151677z" p-id="606"></path></svg>